<?xml version="1.0" ?><!-- Uploaded to: SVG Repo, www.svgrepo.com, Generator: SVG Repo Mixer Tools -->
<svg fill="#000000" viewBox="0 0 64 64" data-name="Material Expand" id="Material_Expand" xmlns="http://www.w3.org/2000/svg"><path d="M6,5V18.576L2.173,27.188A2,2,0,0,0,4,30H33a2,2,0,0,0,1.748-2.972L30,18.482V5a2,2,0,0,0-2-2H8A2,2,0,0,0,6,5ZM7.077,26,9.3,21H26.823L29.6,26ZM10,7H26V17H10Z"/><path d="M60,34H38a2,2,0,0,0-2,2V52a2,2,0,0,0,2,2h9v4H42v4H56V58H51V54h9a2,2,0,0,0,2-2V36A2,2,0,0,0,60,34ZM58,50H40V38H58Z"/>
	<path d="M31.308,54.631l.683-3.942a20.849,20.849,0,0,1-3.532-.938L27.1,53.511A24.789,24.789,0,0,0,31.308,54.631Z"/>
	<path d="M23.145,51.672l2-3.465a21,21,0,0,1-3-2.1l-2.569,3.067A25.269,25.269,0,0,0,23.145,51.672Z"/><path d="M19.551,43.525a21.121,21.121,0,0,1-2.107-2.993l-3.459,2.01a25.3,25.3,0,0,0,2.5,3.56Z"/>
	<path d="M11,34.392A25.021,25.021,0,0,0,12.134,38.6l3.756-1.375a20.913,20.913,0,0,1-.951-3.531Z"/>
	<path d="M56.605,27.557a24.851,24.851,0,0,0-1.142-4.2l-3.754,1.382a20.846,20.846,0,0,1,.959,3.529Z"/>
	<path d="M48.037,18.441a21.132,21.132,0,0,1,2.112,2.988L53.6,19.411a25.133,25.133,0,0,0-2.514-3.554Z"/>
	<path d="M45.438,15.862,48,12.79A25.005,25.005,0,0,0,44.426,10.3l-1.99,3.468A21.14,21.14,0,0,1,45.438,15.862Z"/>
	<path d="M39.114,12.236,40.47,8.473a24.937,24.937,0,0,0-4.213-1.111L35.579,11.3A20.929,20.929,0,0,1,39.114,12.236Z"/>
</svg>